<svg xmlns="http://www.w3.org/2000/svg" xmlns:xlink="http://www.w3.org/1999/xlink" width="500" zoomAndPan="magnify" viewBox="0 0 375 374.999991" height="500" preserveAspectRatio="xMidYMid meet" version="1.0"><defs><clipPath id="1470103ffd"><path d="M 274 58 L 342.058594 58 L 342.058594 178 L 274 178 Z M 274 58 " clip-rule="nonzero"/></clipPath><clipPath id="bcf2522fc3"><path d="M 44 185 L 342 185 L 342 344.625 L 44 344.625 Z M 44 185 " clip-rule="nonzero"/></clipPath><clipPath id="fc490deebb"><path d="M 33.058594 30.375 L 230 30.375 L 230 205 L 33.058594 205 Z M 33.058594 30.375 " clip-rule="nonzero"/></clipPath></defs><g clip-path="url(#1470103ffd)"><path fill="#20f2ff" d="M 283.632812 77.46875 L 285.273438 77.46875 L 285.273438 177.324219 L 330.671875 177.324219 L 330.671875 77.46875 L 332.492188 77.46875 C 337.773438 77.46875 342.058594 73.1875 342.058594 67.910156 C 342.058594 62.628906 337.773438 58.347656 332.492188 58.347656 L 283.632812 58.347656 C 278.347656 58.347656 274.066406 62.628906 274.066406 67.910156 C 274.066406 73.1875 278.347656 77.46875 283.632812 77.46875 " fill-opacity="1" fill-rule="nonzero"/></g><g clip-path="url(#bcf2522fc3)"><path fill="#ffffff" d="M 332.039062 185.726562 L 283.179688 185.726562 C 277.894531 185.726562 273.613281 190.007812 273.613281 195.289062 C 273.613281 200.570312 277.894531 204.851562 283.179688 204.851562 L 285.210938 204.851562 C 284.363281 229.671875 274.300781 252.886719 256.644531 270.535156 C 238.179688 288.988281 213.632812 299.15625 187.523438 299.15625 C 161.414062 299.15625 136.867188 288.988281 118.402344 270.535156 C 102.757812 254.894531 93.070312 234.882812 90.480469 213.257812 L 44.863281 213.257812 C 50.875 286.761719 112.445312 344.539062 187.523438 344.539062 C 265.441406 344.539062 328.816406 282.304688 330.632812 204.851562 L 332.039062 204.851562 C 337.320312 204.851562 341.605469 200.570312 341.605469 195.289062 C 341.605469 190.007812 337.320312 185.726562 332.039062 185.726562 " fill-opacity="1" fill-rule="nonzero"/></g><path fill="#20f2ff" d="M 154.542969 228.671875 C 134.035156 219.730469 115.355469 220.207031 100.90625 223.507812 C 104.804688 238.992188 112.785156 253.03125 124.347656 264.59375 C 141.222656 281.460938 163.660156 290.753906 187.523438 290.753906 C 211.386719 290.753906 233.828125 281.460938 250.699219 264.59375 C 262.996094 252.304688 271.308594 236.929688 274.878906 220.234375 C 235.832031 244.335938 193.683594 245.746094 154.542969 228.671875 " fill-opacity="1" fill-rule="nonzero"/><g clip-path="url(#fc490deebb)"><path fill="#20f2ff" d="M 101.046875 195.289062 C 101.046875 190.007812 96.765625 185.726562 91.484375 185.726562 L 89.773438 185.726562 L 89.773438 103.730469 L 127.144531 103.730469 L 127.144531 91.710938 L 139.570312 91.710938 C 142.585938 96.417969 152.570312 99.871094 164.4375 99.871094 C 176.300781 99.871094 186.285156 96.417969 189.300781 91.710938 L 190.199219 91.710938 C 197.335938 91.710938 203.167969 97.300781 203.542969 104.347656 C 201.140625 104.84375 199.332031 106.972656 199.332031 109.519531 C 199.332031 112.441406 201.699219 114.804688 204.621094 114.804688 L 224.394531 114.804688 C 227.316406 114.804688 229.6875 112.441406 229.6875 109.519531 C 229.6875 106.894531 227.769531 104.726562 225.261719 104.3125 C 224.855469 85.320312 209.289062 70 190.199219 70 L 186.34375 70 C 185.058594 64.886719 180.441406 61.089844 174.925781 61.089844 L 169.457031 61.089844 C 168.671875 59.796875 167.3125 58.890625 165.734375 58.714844 L 165.734375 41.222656 L 166.132812 41.222656 C 170.835938 41.222656 175.511719 42.546875 179.285156 45.347656 C 180.660156 46.371094 182.363281 46.976562 184.207031 46.976562 C 188.898438 46.976562 192.675781 43.0625 192.457031 38.328125 C 192.257812 33.976562 188.566406 30.464844 184.210938 30.457031 C 182.453125 30.457031 180.824219 31.007812 179.484375 31.941406 C 175.671875 34.605469 171.226562 36.210938 166.578125 36.210938 L 160.808594 36.210938 C 156.160156 36.210938 151.714844 34.605469 147.902344 31.941406 C 146.5625 31.007812 144.933594 30.457031 143.175781 30.457031 C 138.820312 30.464844 135.132812 33.976562 134.929688 38.328125 C 134.710938 43.0625 138.492188 46.976562 143.183594 46.976562 C 145.027344 46.976562 146.730469 46.371094 148.105469 45.347656 C 151.878906 42.546875 156.554688 41.222656 161.253906 41.222656 L 161.652344 41.222656 L 161.652344 58.679688 L 160.910156 58.679688 C 159.09375 58.679688 157.507812 59.644531 156.628906 61.089844 L 152.277344 61.089844 C 146.761719 61.089844 142.144531 64.886719 140.859375 70 L 127.144531 70 L 127.144531 58.347656 L 44.375 58.347656 L 44.375 185.726562 L 42.621094 185.726562 C 37.339844 185.726562 33.058594 190.007812 33.058594 195.289062 C 33.058594 200.570312 37.339844 204.851562 42.621094 204.851562 L 91.484375 204.851562 C 96.765625 204.851562 101.046875 200.570312 101.046875 195.289062 " fill-opacity="1" fill-rule="nonzero"/></g><path fill="#20f2ff" d="M 215.496094 119.515625 C 208.347656 127.707031 199.523438 135.488281 199.523438 144.308594 C 199.523438 153.125 206.671875 160.273438 215.496094 160.273438 C 224.320312 160.273438 231.46875 153.125 231.46875 144.308594 C 231.46875 135.488281 222.644531 127.707031 215.496094 119.515625 " fill-opacity="1" fill-rule="nonzero"/><path fill="#20f2ff" d="M 215.496094 179.007812 C 209.953125 185.359375 203.101562 191.398438 203.101562 198.238281 C 203.101562 205.078125 208.652344 210.621094 215.496094 210.621094 C 222.335938 210.621094 227.886719 205.078125 227.886719 198.238281 C 227.886719 191.398438 221.035156 185.359375 215.496094 179.007812 " fill-opacity="1" fill-rule="nonzero"/></svg>